<mxfile host="app.diagrams.net" agent="Mozilla/5.0 (Windows NT 10.0; Win64; x64) AppleWebKit/537.36 (KHTML, like Gecko) Chrome/127.0.0.0 Safari/537.36" version="24.7.6">
  <diagram name="Page-1" id="PaS2EgIyxs49AFxrIfvB">
    <mxGraphModel dx="1249" dy="602" grid="1" gridSize="10" guides="1" tooltips="1" connect="1" arrows="1" fold="1" page="1" pageScale="1" pageWidth="827" pageHeight="1169" math="0" shadow="0">
      <root>
        <mxCell id="0" />
        <mxCell id="1" parent="0" />
        <mxCell id="3DRbTmcqAwrLGQ6ye5_J-1" value="Sentiment-centric News Portal" style="shape=rect;html=1;verticalAlign=top;fontStyle=1;whiteSpace=wrap;align=center;" parent="1" vertex="1">
          <mxGeometry x="200" y="40" width="310" height="530" as="geometry" />
        </mxCell>
        <mxCell id="3DRbTmcqAwrLGQ6ye5_J-2" value="login" style="ellipse;whiteSpace=wrap;html=1;" parent="1" vertex="1">
          <mxGeometry x="275" y="80" width="90" height="60" as="geometry" />
        </mxCell>
        <mxCell id="3DRbTmcqAwrLGQ6ye5_J-13" style="edgeStyle=none;rounded=0;orthogonalLoop=1;jettySize=auto;html=1;exitX=0;exitY=0.5;exitDx=0;exitDy=0;strokeColor=default;align=center;verticalAlign=middle;fontFamily=Helvetica;fontSize=11;fontColor=default;labelBackgroundColor=default;endArrow=none;entryX=1;entryY=0.3333333333333333;entryDx=0;entryDy=0;entryPerimeter=0;" parent="1" source="3DRbTmcqAwrLGQ6ye5_J-3" target="3DRbTmcqAwrLGQ6ye5_J-9" edge="1">
          <mxGeometry relative="1" as="geometry">
            <mxPoint x="110" y="270" as="targetPoint" />
          </mxGeometry>
        </mxCell>
        <mxCell id="3DRbTmcqAwrLGQ6ye5_J-3" value="view saved news" style="ellipse;whiteSpace=wrap;html=1;" parent="1" vertex="1">
          <mxGeometry x="272.5" y="150" width="90" height="60" as="geometry" />
        </mxCell>
        <mxCell id="3DRbTmcqAwrLGQ6ye5_J-4" value="view all news" style="ellipse;whiteSpace=wrap;html=1;" parent="1" vertex="1">
          <mxGeometry x="265" y="240" width="90" height="60" as="geometry" />
        </mxCell>
        <mxCell id="3DRbTmcqAwrLGQ6ye5_J-5" value="filter news&amp;nbsp;&lt;div&gt;based on genre and sentiments&lt;/div&gt;" style="ellipse;whiteSpace=wrap;html=1;" parent="1" vertex="1">
          <mxGeometry x="257.5" y="320" width="105" height="70" as="geometry" />
        </mxCell>
        <mxCell id="3DRbTmcqAwrLGQ6ye5_J-6" value="view translations" style="ellipse;whiteSpace=wrap;html=1;" parent="1" vertex="1">
          <mxGeometry x="265" y="410" width="90" height="60" as="geometry" />
        </mxCell>
        <mxCell id="3DRbTmcqAwrLGQ6ye5_J-7" value="view sentiment&amp;nbsp;&lt;div&gt;of entities over&amp;nbsp;&lt;/div&gt;&lt;div&gt;time series&lt;/div&gt;" style="ellipse;whiteSpace=wrap;html=1;" parent="1" vertex="1">
          <mxGeometry x="255" y="490" width="110" height="70" as="geometry" />
        </mxCell>
        <mxCell id="3DRbTmcqAwrLGQ6ye5_J-8" style="edgeStyle=orthogonalEdgeStyle;rounded=0;orthogonalLoop=1;jettySize=auto;html=1;exitX=0.5;exitY=1;exitDx=0;exitDy=0;" parent="1" source="3DRbTmcqAwrLGQ6ye5_J-4" target="3DRbTmcqAwrLGQ6ye5_J-4" edge="1">
          <mxGeometry relative="1" as="geometry" />
        </mxCell>
        <mxCell id="3DRbTmcqAwrLGQ6ye5_J-14" style="edgeStyle=none;rounded=0;orthogonalLoop=1;jettySize=auto;html=1;exitX=1;exitY=0.3333333333333333;exitDx=0;exitDy=0;exitPerimeter=0;entryX=0;entryY=0.5;entryDx=0;entryDy=0;strokeColor=default;align=center;verticalAlign=middle;fontFamily=Helvetica;fontSize=11;fontColor=default;labelBackgroundColor=default;endArrow=none;" parent="1" source="3DRbTmcqAwrLGQ6ye5_J-9" target="3DRbTmcqAwrLGQ6ye5_J-4" edge="1">
          <mxGeometry relative="1" as="geometry" />
        </mxCell>
        <mxCell id="3DRbTmcqAwrLGQ6ye5_J-15" style="edgeStyle=none;rounded=0;orthogonalLoop=1;jettySize=auto;html=1;exitX=1;exitY=0.3333333333333333;exitDx=0;exitDy=0;exitPerimeter=0;entryX=0;entryY=0.5;entryDx=0;entryDy=0;strokeColor=default;align=center;verticalAlign=middle;fontFamily=Helvetica;fontSize=11;fontColor=default;labelBackgroundColor=default;endArrow=none;" parent="1" source="3DRbTmcqAwrLGQ6ye5_J-9" target="3DRbTmcqAwrLGQ6ye5_J-5" edge="1">
          <mxGeometry relative="1" as="geometry" />
        </mxCell>
        <mxCell id="3DRbTmcqAwrLGQ6ye5_J-16" style="edgeStyle=none;rounded=0;orthogonalLoop=1;jettySize=auto;html=1;exitX=1;exitY=0.3333333333333333;exitDx=0;exitDy=0;exitPerimeter=0;entryX=0;entryY=0.5;entryDx=0;entryDy=0;strokeColor=default;align=center;verticalAlign=middle;fontFamily=Helvetica;fontSize=11;fontColor=default;labelBackgroundColor=default;endArrow=none;" parent="1" source="3DRbTmcqAwrLGQ6ye5_J-9" target="3DRbTmcqAwrLGQ6ye5_J-6" edge="1">
          <mxGeometry relative="1" as="geometry" />
        </mxCell>
        <mxCell id="3DRbTmcqAwrLGQ6ye5_J-17" style="edgeStyle=none;rounded=0;orthogonalLoop=1;jettySize=auto;html=1;exitX=1;exitY=0.3333333333333333;exitDx=0;exitDy=0;exitPerimeter=0;entryX=0;entryY=0.5;entryDx=0;entryDy=0;strokeColor=default;align=center;verticalAlign=middle;fontFamily=Helvetica;fontSize=11;fontColor=default;labelBackgroundColor=default;endArrow=none;" parent="1" source="3DRbTmcqAwrLGQ6ye5_J-9" target="3DRbTmcqAwrLGQ6ye5_J-7" edge="1">
          <mxGeometry relative="1" as="geometry" />
        </mxCell>
        <mxCell id="3DRbTmcqAwrLGQ6ye5_J-9" value="User" style="shape=umlActor;verticalLabelPosition=bottom;verticalAlign=top;html=1;outlineConnect=0;" parent="1" vertex="1">
          <mxGeometry x="80" y="260" width="40" height="90" as="geometry" />
        </mxCell>
        <mxCell id="3DRbTmcqAwrLGQ6ye5_J-11" value="" style="endArrow=none;html=1;rounded=0;entryX=0;entryY=0.5;entryDx=0;entryDy=0;exitX=1;exitY=0.3333333333333333;exitDx=0;exitDy=0;exitPerimeter=0;" parent="1" source="3DRbTmcqAwrLGQ6ye5_J-9" target="3DRbTmcqAwrLGQ6ye5_J-2" edge="1">
          <mxGeometry width="50" height="50" relative="1" as="geometry">
            <mxPoint x="30" y="190" as="sourcePoint" />
            <mxPoint x="80" y="140" as="targetPoint" />
          </mxGeometry>
        </mxCell>
        <mxCell id="bGTQ_ow9DxzTUPj5sjbR-1" value="classify news" style="ellipse;whiteSpace=wrap;html=1;" vertex="1" parent="1">
          <mxGeometry x="393" y="420" width="90" height="60" as="geometry" />
        </mxCell>
        <mxCell id="bGTQ_ow9DxzTUPj5sjbR-2" value="crawl news articles from various news sources" style="ellipse;whiteSpace=wrap;html=1;" vertex="1" parent="1">
          <mxGeometry x="390.5" y="80" width="95" height="80" as="geometry" />
        </mxCell>
        <mxCell id="bGTQ_ow9DxzTUPj5sjbR-3" value="generate topic trends from article" style="ellipse;whiteSpace=wrap;html=1;" vertex="1" parent="1">
          <mxGeometry x="390.5" y="170" width="95" height="70" as="geometry" />
        </mxCell>
        <mxCell id="bGTQ_ow9DxzTUPj5sjbR-4" value="visualize trends over time series" style="ellipse;whiteSpace=wrap;html=1;" vertex="1" parent="1">
          <mxGeometry x="390.5" y="250" width="95" height="70" as="geometry" />
        </mxCell>
        <mxCell id="bGTQ_ow9DxzTUPj5sjbR-5" value="apply sentiment analysis to the news" style="ellipse;whiteSpace=wrap;html=1;" vertex="1" parent="1">
          <mxGeometry x="386" y="330" width="104" height="80" as="geometry" />
        </mxCell>
        <mxCell id="bGTQ_ow9DxzTUPj5sjbR-14" value="translate language" style="ellipse;whiteSpace=wrap;html=1;" vertex="1" parent="1">
          <mxGeometry x="390.5" y="490" width="95" height="70" as="geometry" />
        </mxCell>
      </root>
    </mxGraphModel>
  </diagram>
</mxfile>
